<?xml version="1.0" standalone="no"?>
<!DOCTYPE svg PUBLIC "-//W3C//DTD SVG 20010904//EN"
 "http://www.w3.org/TR/2001/REC-SVG-20010904/DTD/svg10.dtd">
<svg version="1.0" xmlns="http://www.w3.org/2000/svg"
 width="200.000000pt" height="200.000000pt" viewBox="0 0 200.000000 200.000000"
 preserveAspectRatio="xMidYMid meet">
<metadata>
Created by potrace 1.15, written by Peter Selinger 2001-2017
</metadata>
<g transform="translate(0.000000,200.000000) scale(0.100000,-0.100000)"
fill="#000000" stroke="none">
<path d="M924 1874 c-23 -12 -53 -24 -66 -27 -12 -4 -40 -22 -61 -42 -21 -19
-44 -35 -50 -35 -13 0 -49 -53 -46 -67 1 -4 -3 -21 -10 -38 -18 -43 -29 -109
-35 -205 l-5 -85 26 50 c14 28 30 53 36 56 5 4 22 31 36 60 36 74 62 90 147
91 83 1 144 -12 154 -32 4 -8 14 -30 23 -48 19 -38 22 -72 7 -72 -11 0 17 -50
35 -62 6 -5 4 -8 -5 -9 -8 0 -4 -4 10 -8 21 -7 18 -9 -25 -15 -57 -8 -81 -19
-77 -35 1 -6 -14 -11 -36 -11 -30 0 -46 8 -75 35 -29 28 -45 35 -76 35 -22 0
-43 -4 -46 -10 -3 -5 -17 -10 -30 -10 -29 0 -84 -21 -70 -26 6 -2 9 -25 8 -52
l-2 -47 7 40 c11 56 16 62 63 70 42 7 83 -6 92 -29 4 -9 -9 -10 -44 -6 -59 8
-86 -4 -46 -19 16 -6 32 -11 36 -11 5 0 14 -7 21 -15 10 -12 9 -15 -4 -15 -10
0 -14 -4 -11 -10 9 -14 82 -13 91 2 5 7 2 9 -7 4 -8 -4 -5 0 6 9 17 14 18 18
6 38 -12 21 -12 21 4 5 40 -37 -19 -138 -81 -138 -37 0 -89 25 -108 51 -9 13
-16 18 -16 12 0 -18 66 -71 99 -78 53 -11 139 55 132 102 -4 37 9 47 30 24 16
-17 19 -34 18 -101 -2 -50 -7 -84 -14 -88 -18 -11 -38 -52 -25 -53 20 -3 25
-4 38 -12 27 -18 -1 -24 -89 -20 -50 2 -94 4 -98 5 -21 2 -22 -5 -1 -27 27
-28 40 -32 40 -10 0 22 40 23 125 3 28 -7 56 -11 63 -10 6 2 12 -2 12 -8 0 -5
-11 -10 -25 -10 -15 0 -31 -9 -41 -25 -11 -17 -25 -25 -45 -25 -49 0 -32 -33
34 -64 39 -20 47 -20 66 -8 28 19 34 12 20 -24 -10 -24 -13 -26 -17 -10 -3 15
-7 13 -23 -13 -18 -30 -19 -30 -99 -28 -44 1 -80 1 -80 -1 0 -13 29 -54 64
-90 l41 -43 -28 -25 c-45 -38 -18 -90 41 -78 24 5 32 12 34 33 3 22 9 27 44
31 32 5 49 15 75 45 19 22 52 58 75 80 62 61 90 124 48 108 -16 -6 -19 18 -4
33 5 5 12 25 14 44 2 19 10 49 17 65 23 58 27 107 14 146 -12 32 -11 38 1 43
8 3 13 2 10 -3 -3 -5 1 -12 9 -15 12 -4 14 0 9 19 -3 14 -7 51 -8 83 -2 31
-10 71 -19 87 -16 29 -16 30 5 35 24 6 68 -30 68 -56 0 -9 6 -14 13 -12 15 6
34 98 42 206 6 75 4 86 -18 127 -14 24 -28 58 -32 75 -4 16 -10 30 -15 30 -5
0 -13 15 -19 33 -6 19 -24 40 -41 51 -17 9 -42 28 -57 42 -15 14 -39 24 -57
25 -151 6 -182 3 -222 -17z"/>
<path d="M713 660 c3 -112 22 -198 68 -305 10 -26 13 -27 16 -10 2 11 9 32 14
46 8 22 5 38 -20 90 -28 60 -61 190 -61 241 0 13 -5 30 -10 38 -7 10 -9 -21
-7 -100z"/>
</g>
</svg>
